<svg width="201" height="40" 
    xmlns="http://www.w3.org/2000/svg">
    <g fill="black" fill-rule="evenodd">
        <path d="M89.716 13.388c-.815-.615-2.735-1.938-5.997-1.938-6.333 0-11.946 4.727-11.946 14.983 0 5.578 2.495 8.367 7.34 8.367 3.79 0 6.189-1.654 7.196-2.41l1.199 4.442c-1.007.85-3.742 3.167-9.739 3.167C70.525 40 65.2 35.32 65.2 26.624c0-14.039 9.595-20.373 18.951-20.373 4.222 0 6.573 1.56 7.436 2.175l-1.871 4.962zm8.059 20.987h12.618l-1.151 5.058H90.578l5.23-32.615h6.381l-4.414 27.557zm44.041-14.795c0 13.472-8.204 20.42-17.463 20.42-7.533 0-12.426-4.774-12.426-13.33 0-13.471 8.156-20.42 17.464-20.42 7.532.001 12.425 4.776 12.425 13.33zM118.5 26.198c0 6.05 2.447 8.603 6.381 8.603 5.757 0 10.363-5.153 10.363-14.7 0-6.05-2.447-8.65-6.429-8.65-5.709 0-10.315 5.152-10.315 14.747zm50.998-.426C167.963 35.18 163.021 40 154.721 40c-6.621 0-10.363-2.836-10.363-10.352 0-1.843.192-3.497.623-6.145l2.687-16.685h6.381l-2.735 16.827c-.48 2.742-.623 4.207-.623 5.91 0 3.97 1.919 5.246 4.893 5.246 4.366 0 6.813-2.553 7.868-8.981l3.022-19.001h6.093l-3.069 18.953zM184.272 6.82c10.699 0 15.928 4.49 15.928 12.62 0 12.952-8.348 19.994-21.205 19.994h-7.293l5.23-32.614h7.34zm-1.775 5.057l-3.599 22.5h.96c8.252 0 13.769-4.821 13.769-14.37 0-5.53-3.598-8.13-10.123-8.13h-1.007zM53.728 24.203c0 .865-.125 2.01-.37 3.402l-1.93 11.794h-6.304l1.913-11.693c.3-1.834.473-3.322.514-4.424 1.283-1.141 2.661-1.72 4.099-1.72.892 0 2.078.274 2.078 2.641zM25.854 39.355l-.008.044H9.64l-.032.002C4.412 39.401.2 35.261.2 30.153s4.212-9.248 9.408-9.248c.926 0 1.819.137 2.664.383-.001-.053-.008-.102-.008-.154 0-6.854 5.652-12.41 12.625-12.41 2.107 0 4.09.514 5.836 1.412C32.852 4.231 38.58 0 45.316 0c8.548 0 15.309 6.69 15.478 15.214.039 1.953-.108 4.234-.503 6.646-.335-3.812-2.336-5.748-5.972-5.748-2.907 0-5.403 1.014-7.427 3.016-.867-2.002-2.59-3.016-5.128-3.016-2.458 0-4.7 1.002-6.676 2.982l.386-2.427h-5.971l-3.649 22.688zm15.082-15.152c0 .812-.124 1.958-.37 3.404l-1.922 11.746-.008.046h-6.303l2.552-16.058c1.284-1.18 2.636-1.778 4.02-1.778.872 0 2.031.273 2.031 2.64z" fill-rule="nonzero" fill="white"/>
    </g>
</svg>